HIERARCHY
ROOT Hips
{
	OFFSET -1.602300 6.242603 43.997101
	CHANNELS 6 Xposition Yposition Zposition Zrotation Xrotation Yrotation
	JOINT Chest
	{
		OFFSET -0.204900 1.598101 7.917301
		CHANNELS 6 Xposition Yposition Zposition Zrotation Xrotation Yrotation
		JOINT Chest2
		{
			OFFSET 0.000000 0.000000 3.404099
			CHANNELS 6 Xposition Yposition Zposition Zrotation Xrotation Yrotation
			JOINT Neck
			{
				OFFSET 0.000000 0.000000 7.928600
				CHANNELS 6 Xposition Yposition Zposition Zrotation Xrotation Yrotation
				JOINT Head
				{
					OFFSET 0.000000 0.000000 2.173897
					CHANNELS 6 Xposition Yposition Zposition Zrotation Xrotation Yrotation
					End Site
					{
						OFFSET 0.000000 0.000001 10.404503
					}
				}
			}
			JOINT LeftCollar
			{
				OFFSET 2.833800 -1.396299 4.843300
				CHANNELS 6 Xposition Yposition Zposition Zrotation Xrotation Yrotation
				JOINT LeftShoulder
				{
					OFFSET 4.363600 0.000000 0.000000
					CHANNELS 6 Xposition Yposition Zposition Zrotation Xrotation Yrotation
					JOINT LeftElbow
					{
						OFFSET 0.000000 -0.000001 -10.306900
						CHANNELS 6 Xposition Yposition Zposition Zrotation Xrotation Yrotation
						JOINT LeftWrist
						{
							OFFSET 0.000000 -0.000001 -12.404900
							CHANNELS 6 Xposition Yposition Zposition Zrotation Xrotation Yrotation
							End Site
							{
								OFFSET 0.000000 0.000000 -2.173901
							}
						}
					}
				}
			}
			JOINT RightCollar
			{
				OFFSET -2.354800 -1.897200 5.063099
				CHANNELS 6 Xposition Yposition Zposition Zrotation Xrotation Yrotation
				JOINT RightShoulder
				{
					OFFSET -4.375800 0.000000 0.000000
					CHANNELS 6 Xposition Yposition Zposition Zrotation Xrotation Yrotation
					JOINT RightElbow
					{
						OFFSET 0.000000 -0.000001 -10.005001
						CHANNELS 6 Xposition Yposition Zposition Zrotation Xrotation Yrotation
						JOINT RightWrist
						{
							OFFSET 0.000000 -0.000001 -13.174900
							CHANNELS 6 Xposition Yposition Zposition Zrotation Xrotation Yrotation
							End Site
							{
								OFFSET 0.000000 0.000000 -2.173901
							}
						}
					}
				}
			}
		}
	}
	JOINT LeftHip
	{
		OFFSET 2.240600 0.386800 -2.614101
		CHANNELS 6 Xposition Yposition Zposition Zrotation Xrotation Yrotation
		JOINT LeftKnee
		{
			OFFSET 0.000000 -0.000001 -18.592899
			CHANNELS 6 Xposition Yposition Zposition Zrotation Xrotation Yrotation
			JOINT LeftAnkle
			{
				OFFSET 0.000000 -0.000001 -18.765800
				CHANNELS 6 Xposition Yposition Zposition Zrotation Xrotation Yrotation
				End Site
				{
					OFFSET 0.000000 -8.655000 0.000000
				}
			}
		}
	}
	JOINT RightHip
	{
		OFFSET -2.014900 -0.220900 -2.615898
		CHANNELS 6 Xposition Yposition Zposition Zrotation Xrotation Yrotation
		JOINT RightKnee
		{
			OFFSET 0.000000 -0.000001 -18.633900
			CHANNELS 6 Xposition Yposition Zposition Zrotation Xrotation Yrotation
			JOINT RightAnkle
			{
				OFFSET 0.000000 -0.000001 -18.285101
				CHANNELS 6 Xposition Yposition Zposition Zrotation Xrotation Yrotation
				End Site
				{
					OFFSET 0.000000 -7.524500 0.000000
				}
			}
		}
	}
}
MOTION
Frames: 6
Frame Time: 0.041667
-6.386400 27.159306 6.989311 5.152543 -9.458060 2.676854 -0.204901 1.598100 7.917311 -4.782011 20.045024 1.920930 0.000000 -0.000004 3.404100 -1.752244 -15.998712 -1.867407 -0.000002 -0.000001 7.928602 3.197403 5.302809 -5.224970 -0.000000 0.000001 2.173898 0.816244 -4.095165 1.374728 2.833800 -1.396301 4.843305 9.278068 7.750987 11.037412 4.363588 0.000004 -0.000002 -23.758512 11.926759 -75.877050 0.000002 -0.000002 -10.306899 614.850515 -182.984074 535.835444 0.000002 0.000006 -12.404895 -271.388004 368.122389 -323.689768 -2.354806 -1.897200 5.063101 9.470562 8.454429 -18.619046 -4.375794 0.000003 -0.000003 10.250859 8.221985 81.682499 0.000004 -0.000001 -10.004991 -635.979295 -177.346613 -539.734990 0.000006 0.000004 -13.174895 -72.787509 -10.338984 334.223067 2.240597 0.386803 -2.614099 133.887253 -39.440757 100.691229 -0.000002 -0.000001 -18.592890 -118.198787 41.872717 136.209572 -0.000001 0.000001 -18.765799 6.781847 36.755297 -3.838933 -2.014894 -0.220895 -2.615895 -114.564129 -17.852313 -90.510040 -0.000000 0.000002 -18.633886 177.280879 28.173168 -179.227606 -0.000004 -0.000005 -18.285084 -15.060127 33.037072 -206.319319
-6.386900 27.185404 6.975510 5.193309 -9.590656 2.684082 -0.204900 1.598097 7.917309 -4.820520 20.323523 1.937698 -0.000001 0.000000 3.404105 -1.746065 -15.954765 -1.874813 -0.000001 0.000002 7.928597 3.260240 5.171462 -5.281203 0.000000 0.000001 2.173898 0.794385 -4.140283 1.301095 2.833802 -1.396300 4.843305 9.210392 7.559205 11.021805 4.363590 0.000003 -0.000001 -23.961968 12.047212 -75.615795 -0.000001 -0.000003 -10.306899 614.533157 -183.001368 535.786485 0.000000 0.000003 -12.404901 -270.693784 368.260468 -323.995378 -2.354802 -1.897200 5.063102 9.562127 8.438799 -18.488639 -4.375794 -0.000002 -0.000000 10.393304 8.541788 81.386594 0.000001 -0.000002 -10.004992 -636.120270 -177.362022 -539.866020 0.000001 0.000005 -13.174891 -73.638168 -10.018682 335.897857 2.240599 0.386802 -2.614097 133.759693 -39.461575 100.578176 0.000001 0.000002 -18.592892 -118.304491 41.927045 136.274158 -0.000002 0.000002 -18.765799 6.905400 36.816728 -4.241614 -2.014894 -0.220896 -2.615895 -114.584995 -17.814493 -90.432955 -0.000000 0.000004 -18.633888 177.271495 28.169360 -179.182404 -0.000006 -0.000002 -18.285082 -15.109043 33.024091 -206.252356
-6.387199 27.207804 6.964211 5.279127 -9.745377 2.696622 -0.204900 1.598100 7.917305 -4.904648 20.626476 1.964105 0.000001 -0.000004 3.404101 -1.740677 -15.914262 -1.888682 -0.000001 -0.000000 7.928603 3.337599 5.051717 -5.328116 0.000001 0.000002 2.173906 0.761409 -4.258270 1.247125 2.833802 -1.396301 4.843307 9.122517 7.357151 10.915048 4.363589 0.000003 -0.000002 -24.147980 12.144377 -75.246910 0.000002 -0.000001 -10.306893 614.448298 -182.977011 535.783917 0.000003 0.000000 -12.404902 -270.194688 368.390460 -324.322981 -2.354802 -1.897203 5.063102 9.670098 8.440140 -18.401411 -4.375789 0.000003 -0.000001 10.486377 8.859958 81.129793 0.000001 -0.000002 -10.004992 -636.057542 -177.392840 -540.017924 -0.000003 0.000004 -13.174891 -74.168765 -10.032367 336.798759 2.240599 0.386801 -2.614101 133.575947 -39.524119 100.435767 -0.000001 0.000001 -18.592896 -118.373203 41.956814 136.330029 -0.000002 0.000002 -18.765797 7.238996 36.833369 -4.745146 -2.014895 -0.220897 -2.615898 -114.648263 -17.775332 -90.331014 -0.000000 0.000000 -18.633886 177.263954 28.161205 -179.125823 -0.000006 -0.000006 -18.285084 -15.162511 33.010496 -206.180516
-6.387700 27.227106 6.954212 5.372550 -9.918942 2.706174 -0.204900 1.598097 7.917306 -4.997803 20.959243 1.996857 0.000001 -0.000003 3.404105 -1.733736 -15.904753 -1.910511 0.000000 0.000001 7.928601 3.392774 4.951086 -5.351843 -0.000001 0.000001 2.173903 0.719857 -4.426914 1.244679 2.833801 -1.396297 4.843307 9.027811 7.174273 10.798738 4.363589 0.000006 -0.000003 -24.362720 12.296060 -74.848799 0.000000 -0.000003 -10.306895 614.449774 -182.957600 535.766049 0.000005 0.000003 -12.404902 -269.736028 368.565286 -324.639602 -2.354800 -1.897200 5.063103 9.754302 8.416200 -18.347640 -4.375789 0.000004 -0.000002 10.568929 9.130003 80.897771 0.000002 -0.000002 -10.004992 -635.910173 -177.434723 -540.178351 -0.000003 0.000004 -13.174895 -75.056792 -10.005129 337.596771 2.240599 0.386802 -2.614103 133.373637 -39.621746 100.268980 -0.000000 0.000001 -18.592897 -118.398406 41.964730 136.367664 0.000001 0.000000 -18.765800 7.381823 36.859778 -5.108173 -2.014896 -0.220900 -2.615898 -114.711866 -17.761108 -90.206541 0.000001 0.000001 -18.633881 177.229994 28.154969 -179.060813 -0.000005 -0.000003 -18.285082 -15.225777 32.996036 -206.101450
-6.388400 27.244402 6.943302 5.462800 -10.069733 2.731683 -0.204901 1.598098 7.917304 -5.081359 21.268897 2.002575 0.000001 0.000003 3.404099 -1.729520 -15.925571 -1.924329 0.000000 0.000000 7.928606 3.387917 4.929943 -5.323502 -0.000000 -0.000002 2.173895 0.724653 -4.608411 1.249930 2.833802 -1.396302 4.843308 8.964199 7.021338 10.677821 4.363589 0.000003 -0.000005 -24.618345 12.495414 -74.451063 -0.000000 -0.000001 -10.306894 614.491520 -182.936153 535.729330 -0.000000 0.000001 -12.404891 -269.343374 368.715304 -324.913410 -2.354804 -1.897201 5.063104 9.701484 8.326283 -18.316844 -4.375796 0.000003 -0.000001 10.797125 9.587110 80.663059 0.000000 -0.000001 -10.004990 -635.834440 -177.466251 -540.292989 0.000001 0.000002 -13.174895 -75.937579 -9.930188 338.428333 2.240597 0.386803 -2.614104 133.205327 -39.706308 100.144186 0.000001 -0.000001 -18.592894 -118.389950 41.922666 136.374617 0.000000 0.000001 -18.765799 7.548826 36.859659 -5.395983 -2.014896 -0.220896 -2.615897 -114.775114 -17.748919 -90.097353 0.000000 0.000004 -18.633883 177.162813 28.152377 -178.995038 -0.000006 -0.000004 -18.285086 -15.295666 32.981170 -206.017466
-6.389299 27.261702 6.931210 5.532487 -10.184286 2.751363 -0.204900 1.598099 7.917307 -5.146638 21.528022 2.012877 -0.000000 0.000005 3.404097 -1.732445 -15.969518 -1.933880 -0.000001 0.000000 7.928602 3.398609 4.832294 -5.324656 0.000000 -0.000001 2.173895 0.712719 -4.615634 1.280545 2.833801 -1.396302 4.843307 8.921829 6.913066 10.608887 4.363596 0.000001 -0.000006 -24.904150 12.790700 -74.123979 -0.000001 -0.000003 -10.306894 614.596650 -182.914337 535.676765 -0.000001 0.000004 -12.404896 -268.905804 368.866825 -325.284590 -2.354805 -1.897200 5.063100 9.557876 8.182245 -18.333039 -4.375790 0.000003 0.000000 11.126813 10.129574 80.448536 0.000003 -0.000001 -10.004992 -635.793951 -177.497834 -540.364897 0.000000 0.000006 -13.174899 -76.746499 -9.845467 339.255933 2.240599 0.386804 -2.614103 133.080102 -39.754597 100.061240 0.000000 -0.000002 -18.592892 -118.381344 41.874794 136.369084 -0.000001 0.000002 -18.765797 7.688237 36.840773 -5.586535 -2.014896 -0.220895 -2.615900 -114.834495 -17.725263 -90.026319 0.000001 0.000002 -18.633886 177.064690 28.149735 -178.915617 -0.000006 -0.000003 -18.285084 -15.384033 32.963794 -205.915778
